{"info": {"author": "", "author_email": "", "bugtrack_url": null, "classifiers": [], "description": "Udb.py\n======\n\n.. image:: https://travis-ci.org/akaterra/udb.py.svg?branch=master\n  :target: https://travis-ci.org/akaterra/udb.py\n\nUdb is an in-memory database based on the `Zope Foundation BTrees <https://github.com/zopefoundation/BTrees>`_, the `Rtree <http://toblerity.org/rtree>`_ and on the native python's dict.\nUdb provides indexes support and limited MongoDB-like queries.\nUdb does not support any type of transactions for now.\n\nTable of contents\n-----------------\n\n* `Requirements <#requirements>`_\n\n* `Installation <#installation>`_\n\n* `Quick start <#quick-start>`_\n\n* `Data schema for default values <#data-schema-for-default-values>`_\n\n  * `Functional fields <#functional-fields>`_\n\n* `Indexes <#indexes>`_\n\n  * `Index declaration <#index-declaration>`_\n\n  * `Float precision <#float-precision>`_\n\n* `Querying <#querying>`_\n\n  * `Query validation <#query-validation>`_\n\n  * `Comparison order <#comparison-order>`_\n\n  * `Getting plan <#getting-plan>`_\n\n  * `Scan operations <#scan-operations>`_\n\n* `Storages <#storages>`_\n\n* `Select operation <#select-operation>`_\n\n* `Delete operation <#delete-operation>`_\n\n* `Insert operation <#insert-operation>`_\n\n* `Update operation <#update-operation>`_\n\n* `Limitations <#limitations>`_\n\n* `Running tests <#running-tests-with-pytest>`_\n\n* `Benchmarks <#benchmarks>`_\n\nRequirements\n------------\n\nPython 2.7, Python 3.6\n\nInstallation\n------------\n\n.. code:: bash\n\n  pip install udb_py\n\nTo enable BTree indexes support install `Zope Foundation BTrees <https://github.com/zopefoundation/BTrees>`_ package:\n\n.. code:: bash\n\n  pip install BTrees\n\nTo enable RTree indexes support install `Rtree <http://toblerity.org/rtree>`_ package (requires `libspatialindex <https://libspatialindex.org>`_):\n\n.. code:: bash\n\n  pip install Rtree\n\nQuick start\n-----------\n\nCreate the Udb instance with the indexes declaration:\n\n.. code:: python\n\n  from udb_py import Udb, UdbBtreeIndex\n\n  db = Udb({\n      'a': UdbBtreeIndex(['a']),\n      'b': UdbBtreeIndex(['b']),\n      'cde': UdbBtreeIndex(['c', 'd', 'e']),\n  })\n\nInsert records:\n\n.. code:: python\n\n  db.insert({'a': 1, 'b': 1, 'c': 3, 'd': 4, 'e': 5})\n  db.insert({'a': 2, 'b': 2, 'c': 3, 'd': 4, 'e': 5})\n  db.insert({'a': 3, 'b': 3, 'c': 3, 'd': 4, 'e': 5})\n  db.insert({'a': 4, 'b': 4, 'c': 3, 'd': 4, 'e': 6})\n  db.insert({'a': 5, 'b': 5, 'c': 3, 'd': 4, 'e': 7})\n\nSelect records:\n\n.. code:: python\n\n  a = list(db.select({'a': 1})\n\n  [{'a': 1, 'b': 1, 'c': 3, 'd': 4, 'e': 5}]\n\n  b = list(db.select({'b': 0})\n\n  []  # no records with b=0\n\n  c = list(db.select({'c': 3, 'd': 4}, limit=2)\n\n  [{'a': 3, 'b': 3, 'c': 3, 'd': 4, 'e': 5}, {'a': 4, 'b': 4, 'c': 3, 'd': 4, 'e': 6}]\n\nData schema for default values\n------------------------------\n\nData schema allows to fill the inserted record with default values.\nThe default value can be defined as a primitive value or callable:\n\n.. code:: python\n\n  from udb_py import Udb\n\n  db = Udb(schema={\n      'a': 'a',\n      'b': 'b',\n      'c': lambda key, record: 'b' if record['b'] == 'b' else 'c',\n  })\n\nFunctional fields\n~~~~~~~~~~~~~~~~~\n\n**auto_id** - generates unique id (uuid v1 by default)\n\n.. code:: python\n\n  from udb_py import Udb, auto_id\n\n  db = Udb(schema={\n      'id': auto_id(),\n  })\n\n**current_timestamp** - uses current timestamp (as int value)\n\n.. code:: python\n\n  from udb_py import Udb, current_timestamp\n\n  db = Udb(schema={\n      'timestamp': current_timestamp(),\n  })\n\n**fn** - calls custom function\n\n.. code:: python\n\n  from udb_py import Udb, fn\n\n  db = Udb(schema={\n      'timestamp': fn(lambda record: record['a'] + record['b']),\n  })\n\n**optional** - returns \"None\" value\n\n.. code:: python\n\n  from udb_py import Udb, optional\n\n  db = Udb(schema={\n      'a': optional,\n  })\n\nIndexes\n-------\n\nTo speed up the search for records, the necessary fields can be indexed.\nThe Udb also includes a simple query optimiser that can select the most appropriate index.\n\nBTree indexes:\n\n* **UdbBtreeMultivaluedIndex** - btree based multivalued index supporting multiple records with the same index key.\n\n* **UdbBtreeMultivaluedEmbeddedIndex** - same as the **UdbBtreeMultivaluedIndex**, but supports embedded list of values.\n\n* **UdbBtreeUniqIndex** - btree based index operating with always single records, but the second record insertion with the same index key will raise IndexConstraintError.\n\n* **UdbBtreeIndex** - btree based index operating with always single records, so that the second record insertion with the same index key will overwrite the old one. Can be used when the inserting record definitely generates a unique index key.\n\nHash indexes:\n\n* **UdbHashMultivaluedIndex** - hash based multivalued index supporting multiple records with the same index key.\n\n* **UdbHashMultivaluedEmbeddedIndex** - same as the **UdbHashMultivaluedIndex**, but supports embedded list of values.\n\n* **UdbHashUniqIndex** - hash based index operating with always single records, but the second record insertion with the same index key will raise IndexConstraintError.\n\n* **UdbHashIndex** - hash based index operating with always single records, so that the second record insertion with the same index key will overwrite the old one. Can be used when the inserting record definitely generates a unique index key.\n\nSpatial indexes:\n\n* **UdbRtreeIndex** - spatial index that supports \"intersection with rectangle\" and \"near to point\" search\n\nIndex declaration\n~~~~~~~~~~~~~~~~~\n\nAs it was shown `above <#quick-start>`_, for the index declaration the Udb instance should be created with the **indexes** parameter that provides dict with the key as an index name and value as an index instance.\nThe index instance should be created with the sequence of fields (1 at least) which will be fetched in the declared order from the indexed record.\nBy this sequence of fields, the index key will be generated and will be associated with the indexed record.\n\n.. code:: python\n\n  from udb_py import Udb, UdbBtreeIndex\n\n  db = Udb(indexes={\n      'abc': UdbBtreeIndex(['a', 'b', 'c'])  # \"a\", \"b\" and \"c\" fields will be fetched from the indexed record\n  })\n\n  record = {'a': 'A', 'b': 'B', 'c': 'C'}  # index key=ABC\n\nIn this case of declaration in order that the record to be indexed it must contain all of the fields declared in the sequence of index fields.\n\n.. code:: python\n\n  from udb_py import Udb, UdbBtreeIndex\n\n  db = Udb(indexes={\n      'abc': UdbBtreeIndex(['a', 'b', 'c'])  # \"a\", \"b\" and \"c\" fields will be fetched from the indexed record\n  })\n\n  record = {'a': 'A', 'b': 'B'}  # won't be indexed, raises FieldRequiredError\n\nUsing dictionary in case of Python 3:\n\n.. code:: python\n\n  from udb_py import Udb, UdbBtreeIndex, required\n\n  db = Udb(indexes={\n      'abc': UdbBtreeIndex({'a': required, 'b': required, 'c': required})  # \"a\", \"b\" and \"c\" fields will be fetched from the indexed record\n  })\n\n  record = {'a': 'A', 'b': 'B'}  # won't be indexed, raises FieldRequiredError\n\nUsing list of tuples in case of Python 2 (to keep key order):\n\n.. code:: python\n\n  from udb_py import Udb, UdbBtreeIndex, required\n\n  db = Udb(indexes={\n      'abc': UdbBtreeIndex([('a', required), ('b', required), ('c', required)])  # \"a\", \"b\" and \"c\" fields will be fetched from the indexed record\n  })\n\n  record = {'a': 'A', 'b': 'B'}  # won't be indexed, raises FieldRequiredError\n\nThe default value for missing field can be defined as a primitive value or callable (functional index):\n\n.. code:: python\n\n  from udb_py import Udb, UdbBtreeIndex\n\n  db = Udb(indexes={\n      'abc': UdbBtreeIndex({'a': 'a', 'b': 'b', 'c': 'c'})\n  })\n\n  record = {'a': 'A', 'c': 'C'}  # index key=AbC\n\n.. code:: python\n\n  from udb_py import Udb, UdbBtreeIndex\n\n  db = Udb(indexes={\n      'abc': UdbBtreeIndex({'a': 'a', 'b': lambda key, values: 'b', 'c': 'c'})\n  })\n\n  record = {'a': 'A', 'c': 'C'}  # index key=AbC\n\nFloat precision\n~~~~~~~~~~~~~~~\n\nTo be able to index float values enable the float mode with necessary precision (number of decimals):\n\n.. code:: python\n\n  from udb_py import Udb, UdbBtreeIndex\n\n  db = Udb(indexes={\n      'abc': UdbBtreeIndex(['a']).set_float_precision(10)\n  })\n\n  db.insert({'a': 3.1415926525})\n\nQuerying\n--------\n\nUdb supports limited MongoDB-like queries which can be used in the delete, select or update operations.\nThe query generally is a python's dict with the key as a field and value as a primitive value or an equality condition over the field.\nThe query dict is **mutable**, therefore it needs to be initialized every time anew.\n\nSupported query operations:\n\n* **$eq** - equal to a value\n\n  .. code:: python\n\n    udb.select({'a': {'$eq': 5}})\n\n* **$gt** - greater then value\n\n  .. code:: python\n\n    udb.select({'a': {'$gt': 5}})\n\n* **$gte** - greater or equal to a value\n\n  .. code:: python\n\n    udb.select({'a': {'$gte': 5}})\n\n* **$in** - equal to an any value in the list of a values\n\n  .. code:: python\n\n    udb.select({'a': {'$in': 5}})\n\n* **$intersection** - intersection with rectangle\n\n  .. code:: python\n\n    udb.select({'a': {'$intersection': {'minX': 5, 'minY': 5, 'maxX': 1, 'maxY': 5}}})\n\n* **$lt** - less then value\n\n  .. code:: python\n\n    udb.select({'a': {'$lt': 5}})\n\n* **$lte** - less or equal to a value\n\n  .. code:: python\n\n    udb.select({'a': {'$lte': 5}})\n\n* **$ne** - not equal to a value\n\n  .. code:: python\n\n    udb.select({'a': {'$ne': 5}})\n\n  * performs \"seq\" scan.\n\n* **$near** - near to point with optional min and max distances\n\n  .. code:: python\n\n    udb.select({'a': {'$near': {'x': 5, 'y': 5, 'minDistance': 1, 'maxDistance': 5}}})\n\n  * allocates sort buffer is case of \"seq\" scan\n\n  * selects all records in case of unset *maxDistance* and set *minDistance*.\n\n* **$nin** - not equal to an any value in the list of a values\n\n  .. code:: python\n\n    udb.select({'a': {'$nin': [1, 2, 3]}})\n\n  * performs \"seq\" scan.\n\n* **primitive value** - equal to a value\n\n  .. code:: python\n\n    udb.select({'a': 5})\n\nExample:\n\n.. code:: python\n\n  records = list(udb.select({'a': 1}))\n  records = list(udb.select({'a': {'$gte': 1, '$lte': 3}}))\n  records = list(udb.select({'a': {'$in': [1, 2, 3], '$lte': 2}}))\n\nQuery validation\n~~~~~~~~~~~~~~~~\n\nBy default Udb does not check the query dict validity.\nTo check its validity use **validate_query** method.\n\n.. code:: python\n\n  udb.validate_query({'a': {'$gte': [1, 2, 3]}})  # raises InvalidScanOperationValueError('a.$gte')\n\nComparison order\n~~~~~~~~~~~~~~~~\n\nDue to the fact that the Udb database is not strictly typed for stored values, there is the following order of ascending comparisons for values \u200b\u200bof different types:\n\n* None\n\n* boolean - *false* less then *true*\n\n* int, float\n\n* string\n\nSo, for example, the record containing *int* value always greater than the record containing *boolean* value for the same field.\nAlso, it means, that the records having indexed field will be fetched in the provided order.\n\nGetting plan\n~~~~~~~~~~~~\n\nTo get the query plan use **select** method with **get_plan=True**:\n\n.. code:: python\n\n  from udb_py import Udb, UdbBtreeIndex\n\n  db = Udb(indexes={\n      'abc': UdbBtreeIndex({'a': 'a', 'b': lambda key, values: 'b', 'c': 'c'})\n  })\n\n  db.select({'a': 3}, sort='-a', get_plan=True)  # [(<udb.index.udb_btree_index.UdbBtreeIndex object at 0x104994080>, 'const', 1, 2), (None, 'sort', 0, 0, 'a', False)]\n\nScan operations\n~~~~~~~~~~~~~~~\n\nBTree index:\n\n* **const** - an index covers only one record by the index key\n\n* **in** - an index covers multiple records by the list of the index keys, each of which covers exactly one record\n\n* **range** - an index covers multiple records by the index keys set by the minimum and maximum values\n\n* **prefix** - an index covers range of records by the partial index key\n\n* **prefix_in** - an index covers multiple records by the list of the partial index keys, each of which covers range of records\n\nRTree index:\n\n* **intersection** - an index covers records intersected by the rectangle\n\n* **near** - an index covers records near to the point\n\nNo index:\n\n* **seq** - scanning that is not covered by any index, all records will be scanned (worst case)\n\nStorages\n--------\n\nThe storage allows keeping data persistent.\n\n**UdbJsonFileStorage** stores data in the JSON file.\n\n.. code:: python\n\n  from udb_py import UdbJsonFileStorage\n\n  db = Udb(storage=UdbJsonFileStorage('db'))\n\n  db.load_db()\n\n  db.insert({'a': 'a'})\n\n  db.save_db()\n\n**UdbWalStorage** stores data of delete, insert and update operations in the WAL (Write-Ahead-Logging) file chronologically.\n\n.. code:: python\n\n  from udb_py import UdbWalStorage\n\n  db = Udb(storage=UdbWalStorage('db'))\n\n  db.load_db()\n\n  db.insert({'a': 'a'})\n\n  db.save_db()  # does nothing; delete, insert and update data will be stored on the fly\n\nSelect operation\n----------------\n\nSelected records are **mutable**, so avoid to update them directly.\nOtherwise use copy on select mode:\n\n.. code:: python\n\n  udb.set_copy_on_select()\n\nTo limit the result subset to particular number of records use **limit** parameter:\n\n.. code:: python\n\n  records = list(udb.select({'a': 1}, limit=5)\n\nTo fetch the result subset from the particular offset use **offset** parameter:\n\n.. code:: python\n\n  records = list(udb.select({'a': 1}, offset=5)\n\nDelete operation\n----------------\n\n.. code:: python\n\n  udb.delete(q={'a': 1}, offset=5)\n\nInsert operation\n----------------\n\n.. code:: python\n\n  udb.insert({'a': 1})\n\nUpdate operation\n----------------\n\n.. code:: python\n\n  udb.update({'a': 2}, q={'a': 1}, offset=5)\n\nRunning tests with pytest\n-------------------------\n\n.. code:: bash\n\n  pytest . --ignore=virtualenv -v\n\nLimitations\n-----------\n\n* Nested paths for indexing and querying are not supported, only the root level\n\n* Transactions are not supported\n\nBenchmarks\n----------\n\n* Intel Core i7, 3.58 GHz, 4 cores, disabled HT\n\n* 16GB 1600 MHz RAM\n\n* PyPy3\n\n.. code:: text\n\n  INSERT (BTREE, 1ST INDEX COVERS 1 FIELD)\n\n  Total time: 2.9712460041046143 sec., per sample: 2.971246004104614e-06 sec., samples per second: 336559.1400437912, total samples: 1000000\n\n  SELECT (BTREE, 1ST INDEX COVERS 1 FIELD)\n\n  Total time: 1.7301840782165527 sec., per sample: 1.7301840782165527e-06 sec., samples per second: 577973.1836573046, total samples: 1000000\n\n  INSERT (BTREE, 1ST INDEX COVERS 1 FIELD, 2ND INDEX COVERS 1 FIELD, 3RD INDEX COVERS 2 FIELDS)\n\n  Total time: 6.8810200691223145 sec., per sample: 6.881020069122315e-06 sec., samples per second: 145327.29013353275, total samples: 1000000\n\n  SELECT (BTREE, 1ST INDEX COVERS 1 FIELD, 2ND INDEX COVERS 1 FIELD, 3RD INDEX COVERS 2 FIELDS)\n\n  Total time: 1.8345210552215576 sec., per sample: 1.8345210552215576e-06 sec., samples per second: 545101.4024361953, total samples: 1000000\n\n  INSERT (HASH, 1ST INDEX COVERS 1 FIELD)\n\n  Total time: 1.781458854675293 sec., per sample: 1.781458854675293e-06 sec., samples per second: 561337.6909467103, total samples: 1000000\n\n  SELECT (HASH, 1ST INDEX COVERS 1 FIELD)\n\n  Total time: 0.8209011554718018 sec., per sample: 8.209011554718018e-07 sec., samples per second: 1218173.458929125, total samples: 1000000\n\n  INSERT (HASH, 1ST INDEX COVERS 1 FIELD, 2ND INDEX COVERS 1 FIELD, 3RD INDEX COVERS 2 FIELDS)\n\n  Total time: 4.138401985168457 sec., per sample: 4.138401985168457e-06 sec., samples per second: 241639.16496847855, total samples: 1000000\n\n  SELECT (HASH, 1ST INDEX COVERS 1 FIELD, 2ND INDEX COVERS 1 FIELD, 3RD INDEX COVERS 2 FIELDS)\n\n  Total time: 1.001291036605835 sec., per sample: 1.001291036605835e-06 sec., samples per second: 998710.628020589, total samples: 1000000\n\n  INSERT (RTREE, 1ST INDEX COVERS 1 FIELD)\n\n  Total time: 9.943094968795776 sec., per sample: 9.943094968795777e-05 sec., samples per second: 10057.230702696503, total samples: 100000\n\n  SELECT (RTREE, 1ST INDEX COVERS 1 FIELD, LIMIT = 5)\n\n  Total time: 11.716284990310669 sec., per sample: 0.00011716284990310669 sec., samples per second: 8535.128676256994, total samples: 100000\n\n\n", "description_content_type": "", "docs_url": null, "download_url": "", "downloads": {"last_day": -1, "last_month": -1, "last_week": -1}, "home_page": "https://github.com/akaterra/udb.py", "keywords": "", "license": "MIT", "maintainer": "", "maintainer_email": "", "name": "udb-py", "package_url": "https://pypi.org/project/udb-py/", "platform": "", "project_url": "https://pypi.org/project/udb-py/", "project_urls": {"Homepage": "https://github.com/akaterra/udb.py"}, "release_url": "https://pypi.org/project/udb-py/0.0.1/", "requires_dist": null, "requires_python": "", "summary": "In-memory database", "version": "0.0.1", "yanked": false, "html_description": "<div class=\"project-description\">\n            <a href=\"https://travis-ci.org/akaterra/udb.py\" rel=\"nofollow\"><img alt=\"https://travis-ci.org/akaterra/udb.py.svg?branch=master\" src=\"https://warehouse-camo.ingress.cmh1.psfhosted.org/884cbf17d2910241173f6ec1d4b70feb83d4e4c8/68747470733a2f2f7472617669732d63692e6f72672f616b6174657272612f7564622e70792e7376673f6272616e63683d6d6173746572\"></a>\n<p>Udb is an in-memory database based on the <a href=\"https://github.com/zopefoundation/BTrees\" rel=\"nofollow\">Zope Foundation BTrees</a>, the <a href=\"http://toblerity.org/rtree\" rel=\"nofollow\">Rtree</a> and on the native python\u2019s dict.\nUdb provides indexes support and limited MongoDB-like queries.\nUdb does not support any type of transactions for now.</p>\n<div id=\"table-of-contents\">\n<h2>Table of contents</h2>\n<ul>\n<li><a href=\"#requirements\" rel=\"nofollow\">Requirements</a></li>\n<li><a href=\"#installation\" rel=\"nofollow\">Installation</a></li>\n<li><a href=\"#quick-start\" rel=\"nofollow\">Quick start</a></li>\n<li><a href=\"#data-schema-for-default-values\" rel=\"nofollow\">Data schema for default values</a><ul>\n<li><a href=\"#functional-fields\" rel=\"nofollow\">Functional fields</a></li>\n</ul>\n</li>\n<li><a href=\"#indexes\" rel=\"nofollow\">Indexes</a><ul>\n<li><a href=\"#index-declaration\" rel=\"nofollow\">Index declaration</a></li>\n<li><a href=\"#float-precision\" rel=\"nofollow\">Float precision</a></li>\n</ul>\n</li>\n<li><a href=\"#querying\" rel=\"nofollow\">Querying</a><ul>\n<li><a href=\"#query-validation\" rel=\"nofollow\">Query validation</a></li>\n<li><a href=\"#comparison-order\" rel=\"nofollow\">Comparison order</a></li>\n<li><a href=\"#getting-plan\" rel=\"nofollow\">Getting plan</a></li>\n<li><a href=\"#scan-operations\" rel=\"nofollow\">Scan operations</a></li>\n</ul>\n</li>\n<li><a href=\"#storages\" rel=\"nofollow\">Storages</a></li>\n<li><a href=\"#select-operation\" rel=\"nofollow\">Select operation</a></li>\n<li><a href=\"#delete-operation\" rel=\"nofollow\">Delete operation</a></li>\n<li><a href=\"#insert-operation\" rel=\"nofollow\">Insert operation</a></li>\n<li><a href=\"#update-operation\" rel=\"nofollow\">Update operation</a></li>\n<li><a href=\"#limitations\" rel=\"nofollow\">Limitations</a></li>\n<li><a href=\"#running-tests-with-pytest\" rel=\"nofollow\">Running tests</a></li>\n<li><a href=\"#benchmarks\" rel=\"nofollow\">Benchmarks</a></li>\n</ul>\n</div>\n<div id=\"id1\">\n<h2>Requirements</h2>\n<p>Python 2.7, Python 3.6</p>\n</div>\n<div id=\"id2\">\n<h2>Installation</h2>\n<pre>pip install udb_py\n</pre>\n<p>To enable BTree indexes support install <a href=\"https://github.com/zopefoundation/BTrees\" rel=\"nofollow\">Zope Foundation BTrees</a> package:</p>\n<pre>pip install BTrees\n</pre>\n<p>To enable RTree indexes support install <a href=\"http://toblerity.org/rtree\" rel=\"nofollow\">Rtree</a> package (requires <a href=\"https://libspatialindex.org\" rel=\"nofollow\">libspatialindex</a>):</p>\n<pre>pip install Rtree\n</pre>\n</div>\n<div id=\"id5\">\n<h2>Quick start</h2>\n<p>Create the Udb instance with the indexes declaration:</p>\n<pre><span class=\"kn\">from</span> <span class=\"nn\">udb_py</span> <span class=\"kn\">import</span> <span class=\"n\">Udb</span><span class=\"p\">,</span> <span class=\"n\">UdbBtreeIndex</span>\n\n<span class=\"n\">db</span> <span class=\"o\">=</span> <span class=\"n\">Udb</span><span class=\"p\">({</span>\n    <span class=\"s1\">'a'</span><span class=\"p\">:</span> <span class=\"n\">UdbBtreeIndex</span><span class=\"p\">([</span><span class=\"s1\">'a'</span><span class=\"p\">]),</span>\n    <span class=\"s1\">'b'</span><span class=\"p\">:</span> <span class=\"n\">UdbBtreeIndex</span><span class=\"p\">([</span><span class=\"s1\">'b'</span><span class=\"p\">]),</span>\n    <span class=\"s1\">'cde'</span><span class=\"p\">:</span> <span class=\"n\">UdbBtreeIndex</span><span class=\"p\">([</span><span class=\"s1\">'c'</span><span class=\"p\">,</span> <span class=\"s1\">'d'</span><span class=\"p\">,</span> <span class=\"s1\">'e'</span><span class=\"p\">]),</span>\n<span class=\"p\">})</span>\n</pre>\n<p>Insert records:</p>\n<pre><span class=\"n\">db</span><span class=\"o\">.</span><span class=\"n\">insert</span><span class=\"p\">({</span><span class=\"s1\">'a'</span><span class=\"p\">:</span> <span class=\"mi\">1</span><span class=\"p\">,</span> <span class=\"s1\">'b'</span><span class=\"p\">:</span> <span class=\"mi\">1</span><span class=\"p\">,</span> <span class=\"s1\">'c'</span><span class=\"p\">:</span> <span class=\"mi\">3</span><span class=\"p\">,</span> <span class=\"s1\">'d'</span><span class=\"p\">:</span> <span class=\"mi\">4</span><span class=\"p\">,</span> <span class=\"s1\">'e'</span><span class=\"p\">:</span> <span class=\"mi\">5</span><span class=\"p\">})</span>\n<span class=\"n\">db</span><span class=\"o\">.</span><span class=\"n\">insert</span><span class=\"p\">({</span><span class=\"s1\">'a'</span><span class=\"p\">:</span> <span class=\"mi\">2</span><span class=\"p\">,</span> <span class=\"s1\">'b'</span><span class=\"p\">:</span> <span class=\"mi\">2</span><span class=\"p\">,</span> <span class=\"s1\">'c'</span><span class=\"p\">:</span> <span class=\"mi\">3</span><span class=\"p\">,</span> <span class=\"s1\">'d'</span><span class=\"p\">:</span> <span class=\"mi\">4</span><span class=\"p\">,</span> <span class=\"s1\">'e'</span><span class=\"p\">:</span> <span class=\"mi\">5</span><span class=\"p\">})</span>\n<span class=\"n\">db</span><span class=\"o\">.</span><span class=\"n\">insert</span><span class=\"p\">({</span><span class=\"s1\">'a'</span><span class=\"p\">:</span> <span class=\"mi\">3</span><span class=\"p\">,</span> <span class=\"s1\">'b'</span><span class=\"p\">:</span> <span class=\"mi\">3</span><span class=\"p\">,</span> <span class=\"s1\">'c'</span><span class=\"p\">:</span> <span class=\"mi\">3</span><span class=\"p\">,</span> <span class=\"s1\">'d'</span><span class=\"p\">:</span> <span class=\"mi\">4</span><span class=\"p\">,</span> <span class=\"s1\">'e'</span><span class=\"p\">:</span> <span class=\"mi\">5</span><span class=\"p\">})</span>\n<span class=\"n\">db</span><span class=\"o\">.</span><span class=\"n\">insert</span><span class=\"p\">({</span><span class=\"s1\">'a'</span><span class=\"p\">:</span> <span class=\"mi\">4</span><span class=\"p\">,</span> <span class=\"s1\">'b'</span><span class=\"p\">:</span> <span class=\"mi\">4</span><span class=\"p\">,</span> <span class=\"s1\">'c'</span><span class=\"p\">:</span> <span class=\"mi\">3</span><span class=\"p\">,</span> <span class=\"s1\">'d'</span><span class=\"p\">:</span> <span class=\"mi\">4</span><span class=\"p\">,</span> <span class=\"s1\">'e'</span><span class=\"p\">:</span> <span class=\"mi\">6</span><span class=\"p\">})</span>\n<span class=\"n\">db</span><span class=\"o\">.</span><span class=\"n\">insert</span><span class=\"p\">({</span><span class=\"s1\">'a'</span><span class=\"p\">:</span> <span class=\"mi\">5</span><span class=\"p\">,</span> <span class=\"s1\">'b'</span><span class=\"p\">:</span> <span class=\"mi\">5</span><span class=\"p\">,</span> <span class=\"s1\">'c'</span><span class=\"p\">:</span> <span class=\"mi\">3</span><span class=\"p\">,</span> <span class=\"s1\">'d'</span><span class=\"p\">:</span> <span class=\"mi\">4</span><span class=\"p\">,</span> <span class=\"s1\">'e'</span><span class=\"p\">:</span> <span class=\"mi\">7</span><span class=\"p\">})</span>\n</pre>\n<p>Select records:</p>\n<pre><span class=\"n\">a</span> <span class=\"o\">=</span> <span class=\"nb\">list</span><span class=\"p\">(</span><span class=\"n\">db</span><span class=\"o\">.</span><span class=\"n\">select</span><span class=\"p\">({</span><span class=\"s1\">'a'</span><span class=\"p\">:</span> <span class=\"mi\">1</span><span class=\"p\">})</span>\n\n<span class=\"p\">[{</span><span class=\"s1\">'a'</span><span class=\"p\">:</span> <span class=\"mi\">1</span><span class=\"p\">,</span> <span class=\"s1\">'b'</span><span class=\"p\">:</span> <span class=\"mi\">1</span><span class=\"p\">,</span> <span class=\"s1\">'c'</span><span class=\"p\">:</span> <span class=\"mi\">3</span><span class=\"p\">,</span> <span class=\"s1\">'d'</span><span class=\"p\">:</span> <span class=\"mi\">4</span><span class=\"p\">,</span> <span class=\"s1\">'e'</span><span class=\"p\">:</span> <span class=\"mi\">5</span><span class=\"p\">}]</span>\n\n<span class=\"n\">b</span> <span class=\"o\">=</span> <span class=\"nb\">list</span><span class=\"p\">(</span><span class=\"n\">db</span><span class=\"o\">.</span><span class=\"n\">select</span><span class=\"p\">({</span><span class=\"s1\">'b'</span><span class=\"p\">:</span> <span class=\"mi\">0</span><span class=\"p\">})</span>\n\n<span class=\"p\">[]</span>  <span class=\"c1\"># no records with b=0</span>\n\n<span class=\"n\">c</span> <span class=\"o\">=</span> <span class=\"nb\">list</span><span class=\"p\">(</span><span class=\"n\">db</span><span class=\"o\">.</span><span class=\"n\">select</span><span class=\"p\">({</span><span class=\"s1\">'c'</span><span class=\"p\">:</span> <span class=\"mi\">3</span><span class=\"p\">,</span> <span class=\"s1\">'d'</span><span class=\"p\">:</span> <span class=\"mi\">4</span><span class=\"p\">},</span> <span class=\"n\">limit</span><span class=\"o\">=</span><span class=\"mi\">2</span><span class=\"p\">)</span>\n\n<span class=\"p\">[{</span><span class=\"s1\">'a'</span><span class=\"p\">:</span> <span class=\"mi\">3</span><span class=\"p\">,</span> <span class=\"s1\">'b'</span><span class=\"p\">:</span> <span class=\"mi\">3</span><span class=\"p\">,</span> <span class=\"s1\">'c'</span><span class=\"p\">:</span> <span class=\"mi\">3</span><span class=\"p\">,</span> <span class=\"s1\">'d'</span><span class=\"p\">:</span> <span class=\"mi\">4</span><span class=\"p\">,</span> <span class=\"s1\">'e'</span><span class=\"p\">:</span> <span class=\"mi\">5</span><span class=\"p\">},</span> <span class=\"p\">{</span><span class=\"s1\">'a'</span><span class=\"p\">:</span> <span class=\"mi\">4</span><span class=\"p\">,</span> <span class=\"s1\">'b'</span><span class=\"p\">:</span> <span class=\"mi\">4</span><span class=\"p\">,</span> <span class=\"s1\">'c'</span><span class=\"p\">:</span> <span class=\"mi\">3</span><span class=\"p\">,</span> <span class=\"s1\">'d'</span><span class=\"p\">:</span> <span class=\"mi\">4</span><span class=\"p\">,</span> <span class=\"s1\">'e'</span><span class=\"p\">:</span> <span class=\"mi\">6</span><span class=\"p\">}]</span>\n</pre>\n</div>\n<div id=\"id6\">\n<h2>Data schema for default values</h2>\n<p>Data schema allows to fill the inserted record with default values.\nThe default value can be defined as a primitive value or callable:</p>\n<pre><span class=\"kn\">from</span> <span class=\"nn\">udb_py</span> <span class=\"kn\">import</span> <span class=\"n\">Udb</span>\n\n<span class=\"n\">db</span> <span class=\"o\">=</span> <span class=\"n\">Udb</span><span class=\"p\">(</span><span class=\"n\">schema</span><span class=\"o\">=</span><span class=\"p\">{</span>\n    <span class=\"s1\">'a'</span><span class=\"p\">:</span> <span class=\"s1\">'a'</span><span class=\"p\">,</span>\n    <span class=\"s1\">'b'</span><span class=\"p\">:</span> <span class=\"s1\">'b'</span><span class=\"p\">,</span>\n    <span class=\"s1\">'c'</span><span class=\"p\">:</span> <span class=\"k\">lambda</span> <span class=\"n\">key</span><span class=\"p\">,</span> <span class=\"n\">record</span><span class=\"p\">:</span> <span class=\"s1\">'b'</span> <span class=\"k\">if</span> <span class=\"n\">record</span><span class=\"p\">[</span><span class=\"s1\">'b'</span><span class=\"p\">]</span> <span class=\"o\">==</span> <span class=\"s1\">'b'</span> <span class=\"k\">else</span> <span class=\"s1\">'c'</span><span class=\"p\">,</span>\n<span class=\"p\">})</span>\n</pre>\n<div id=\"id7\">\n<h3>Functional fields</h3>\n<p><strong>auto_id</strong> - generates unique id (uuid v1 by default)</p>\n<pre><span class=\"kn\">from</span> <span class=\"nn\">udb_py</span> <span class=\"kn\">import</span> <span class=\"n\">Udb</span><span class=\"p\">,</span> <span class=\"n\">auto_id</span>\n\n<span class=\"n\">db</span> <span class=\"o\">=</span> <span class=\"n\">Udb</span><span class=\"p\">(</span><span class=\"n\">schema</span><span class=\"o\">=</span><span class=\"p\">{</span>\n    <span class=\"s1\">'id'</span><span class=\"p\">:</span> <span class=\"n\">auto_id</span><span class=\"p\">(),</span>\n<span class=\"p\">})</span>\n</pre>\n<p><strong>current_timestamp</strong> - uses current timestamp (as int value)</p>\n<pre><span class=\"kn\">from</span> <span class=\"nn\">udb_py</span> <span class=\"kn\">import</span> <span class=\"n\">Udb</span><span class=\"p\">,</span> <span class=\"n\">current_timestamp</span>\n\n<span class=\"n\">db</span> <span class=\"o\">=</span> <span class=\"n\">Udb</span><span class=\"p\">(</span><span class=\"n\">schema</span><span class=\"o\">=</span><span class=\"p\">{</span>\n    <span class=\"s1\">'timestamp'</span><span class=\"p\">:</span> <span class=\"n\">current_timestamp</span><span class=\"p\">(),</span>\n<span class=\"p\">})</span>\n</pre>\n<p><strong>fn</strong> - calls custom function</p>\n<pre><span class=\"kn\">from</span> <span class=\"nn\">udb_py</span> <span class=\"kn\">import</span> <span class=\"n\">Udb</span><span class=\"p\">,</span> <span class=\"n\">fn</span>\n\n<span class=\"n\">db</span> <span class=\"o\">=</span> <span class=\"n\">Udb</span><span class=\"p\">(</span><span class=\"n\">schema</span><span class=\"o\">=</span><span class=\"p\">{</span>\n    <span class=\"s1\">'timestamp'</span><span class=\"p\">:</span> <span class=\"n\">fn</span><span class=\"p\">(</span><span class=\"k\">lambda</span> <span class=\"n\">record</span><span class=\"p\">:</span> <span class=\"n\">record</span><span class=\"p\">[</span><span class=\"s1\">'a'</span><span class=\"p\">]</span> <span class=\"o\">+</span> <span class=\"n\">record</span><span class=\"p\">[</span><span class=\"s1\">'b'</span><span class=\"p\">]),</span>\n<span class=\"p\">})</span>\n</pre>\n<p><strong>optional</strong> - returns \u201cNone\u201d value</p>\n<pre><span class=\"kn\">from</span> <span class=\"nn\">udb_py</span> <span class=\"kn\">import</span> <span class=\"n\">Udb</span><span class=\"p\">,</span> <span class=\"n\">optional</span>\n\n<span class=\"n\">db</span> <span class=\"o\">=</span> <span class=\"n\">Udb</span><span class=\"p\">(</span><span class=\"n\">schema</span><span class=\"o\">=</span><span class=\"p\">{</span>\n    <span class=\"s1\">'a'</span><span class=\"p\">:</span> <span class=\"n\">optional</span><span class=\"p\">,</span>\n<span class=\"p\">})</span>\n</pre>\n</div>\n</div>\n<div id=\"id8\">\n<h2>Indexes</h2>\n<p>To speed up the search for records, the necessary fields can be indexed.\nThe Udb also includes a simple query optimiser that can select the most appropriate index.</p>\n<p>BTree indexes:</p>\n<ul>\n<li><strong>UdbBtreeMultivaluedIndex</strong> - btree based multivalued index supporting multiple records with the same index key.</li>\n<li><strong>UdbBtreeMultivaluedEmbeddedIndex</strong> - same as the <strong>UdbBtreeMultivaluedIndex</strong>, but supports embedded list of values.</li>\n<li><strong>UdbBtreeUniqIndex</strong> - btree based index operating with always single records, but the second record insertion with the same index key will raise IndexConstraintError.</li>\n<li><strong>UdbBtreeIndex</strong> - btree based index operating with always single records, so that the second record insertion with the same index key will overwrite the old one. Can be used when the inserting record definitely generates a unique index key.</li>\n</ul>\n<p>Hash indexes:</p>\n<ul>\n<li><strong>UdbHashMultivaluedIndex</strong> - hash based multivalued index supporting multiple records with the same index key.</li>\n<li><strong>UdbHashMultivaluedEmbeddedIndex</strong> - same as the <strong>UdbHashMultivaluedIndex</strong>, but supports embedded list of values.</li>\n<li><strong>UdbHashUniqIndex</strong> - hash based index operating with always single records, but the second record insertion with the same index key will raise IndexConstraintError.</li>\n<li><strong>UdbHashIndex</strong> - hash based index operating with always single records, so that the second record insertion with the same index key will overwrite the old one. Can be used when the inserting record definitely generates a unique index key.</li>\n</ul>\n<p>Spatial indexes:</p>\n<ul>\n<li><strong>UdbRtreeIndex</strong> - spatial index that supports \u201cintersection with rectangle\u201d and \u201cnear to point\u201d search</li>\n</ul>\n<div id=\"id9\">\n<h3>Index declaration</h3>\n<p>As it was shown <a href=\"#quick-start\" rel=\"nofollow\">above</a>, for the index declaration the Udb instance should be created with the <strong>indexes</strong> parameter that provides dict with the key as an index name and value as an index instance.\nThe index instance should be created with the sequence of fields (1 at least) which will be fetched in the declared order from the indexed record.\nBy this sequence of fields, the index key will be generated and will be associated with the indexed record.</p>\n<pre><span class=\"kn\">from</span> <span class=\"nn\">udb_py</span> <span class=\"kn\">import</span> <span class=\"n\">Udb</span><span class=\"p\">,</span> <span class=\"n\">UdbBtreeIndex</span>\n\n<span class=\"n\">db</span> <span class=\"o\">=</span> <span class=\"n\">Udb</span><span class=\"p\">(</span><span class=\"n\">indexes</span><span class=\"o\">=</span><span class=\"p\">{</span>\n    <span class=\"s1\">'abc'</span><span class=\"p\">:</span> <span class=\"n\">UdbBtreeIndex</span><span class=\"p\">([</span><span class=\"s1\">'a'</span><span class=\"p\">,</span> <span class=\"s1\">'b'</span><span class=\"p\">,</span> <span class=\"s1\">'c'</span><span class=\"p\">])</span>  <span class=\"c1\"># \"a\", \"b\" and \"c\" fields will be fetched from the indexed record</span>\n<span class=\"p\">})</span>\n\n<span class=\"n\">record</span> <span class=\"o\">=</span> <span class=\"p\">{</span><span class=\"s1\">'a'</span><span class=\"p\">:</span> <span class=\"s1\">'A'</span><span class=\"p\">,</span> <span class=\"s1\">'b'</span><span class=\"p\">:</span> <span class=\"s1\">'B'</span><span class=\"p\">,</span> <span class=\"s1\">'c'</span><span class=\"p\">:</span> <span class=\"s1\">'C'</span><span class=\"p\">}</span>  <span class=\"c1\"># index key=ABC</span>\n</pre>\n<p>In this case of declaration in order that the record to be indexed it must contain all of the fields declared in the sequence of index fields.</p>\n<pre><span class=\"kn\">from</span> <span class=\"nn\">udb_py</span> <span class=\"kn\">import</span> <span class=\"n\">Udb</span><span class=\"p\">,</span> <span class=\"n\">UdbBtreeIndex</span>\n\n<span class=\"n\">db</span> <span class=\"o\">=</span> <span class=\"n\">Udb</span><span class=\"p\">(</span><span class=\"n\">indexes</span><span class=\"o\">=</span><span class=\"p\">{</span>\n    <span class=\"s1\">'abc'</span><span class=\"p\">:</span> <span class=\"n\">UdbBtreeIndex</span><span class=\"p\">([</span><span class=\"s1\">'a'</span><span class=\"p\">,</span> <span class=\"s1\">'b'</span><span class=\"p\">,</span> <span class=\"s1\">'c'</span><span class=\"p\">])</span>  <span class=\"c1\"># \"a\", \"b\" and \"c\" fields will be fetched from the indexed record</span>\n<span class=\"p\">})</span>\n\n<span class=\"n\">record</span> <span class=\"o\">=</span> <span class=\"p\">{</span><span class=\"s1\">'a'</span><span class=\"p\">:</span> <span class=\"s1\">'A'</span><span class=\"p\">,</span> <span class=\"s1\">'b'</span><span class=\"p\">:</span> <span class=\"s1\">'B'</span><span class=\"p\">}</span>  <span class=\"c1\"># won't be indexed, raises FieldRequiredError</span>\n</pre>\n<p>Using dictionary in case of Python 3:</p>\n<pre><span class=\"kn\">from</span> <span class=\"nn\">udb_py</span> <span class=\"kn\">import</span> <span class=\"n\">Udb</span><span class=\"p\">,</span> <span class=\"n\">UdbBtreeIndex</span><span class=\"p\">,</span> <span class=\"n\">required</span>\n\n<span class=\"n\">db</span> <span class=\"o\">=</span> <span class=\"n\">Udb</span><span class=\"p\">(</span><span class=\"n\">indexes</span><span class=\"o\">=</span><span class=\"p\">{</span>\n    <span class=\"s1\">'abc'</span><span class=\"p\">:</span> <span class=\"n\">UdbBtreeIndex</span><span class=\"p\">({</span><span class=\"s1\">'a'</span><span class=\"p\">:</span> <span class=\"n\">required</span><span class=\"p\">,</span> <span class=\"s1\">'b'</span><span class=\"p\">:</span> <span class=\"n\">required</span><span class=\"p\">,</span> <span class=\"s1\">'c'</span><span class=\"p\">:</span> <span class=\"n\">required</span><span class=\"p\">})</span>  <span class=\"c1\"># \"a\", \"b\" and \"c\" fields will be fetched from the indexed record</span>\n<span class=\"p\">})</span>\n\n<span class=\"n\">record</span> <span class=\"o\">=</span> <span class=\"p\">{</span><span class=\"s1\">'a'</span><span class=\"p\">:</span> <span class=\"s1\">'A'</span><span class=\"p\">,</span> <span class=\"s1\">'b'</span><span class=\"p\">:</span> <span class=\"s1\">'B'</span><span class=\"p\">}</span>  <span class=\"c1\"># won't be indexed, raises FieldRequiredError</span>\n</pre>\n<p>Using list of tuples in case of Python 2 (to keep key order):</p>\n<pre><span class=\"kn\">from</span> <span class=\"nn\">udb_py</span> <span class=\"kn\">import</span> <span class=\"n\">Udb</span><span class=\"p\">,</span> <span class=\"n\">UdbBtreeIndex</span><span class=\"p\">,</span> <span class=\"n\">required</span>\n\n<span class=\"n\">db</span> <span class=\"o\">=</span> <span class=\"n\">Udb</span><span class=\"p\">(</span><span class=\"n\">indexes</span><span class=\"o\">=</span><span class=\"p\">{</span>\n    <span class=\"s1\">'abc'</span><span class=\"p\">:</span> <span class=\"n\">UdbBtreeIndex</span><span class=\"p\">([(</span><span class=\"s1\">'a'</span><span class=\"p\">,</span> <span class=\"n\">required</span><span class=\"p\">),</span> <span class=\"p\">(</span><span class=\"s1\">'b'</span><span class=\"p\">,</span> <span class=\"n\">required</span><span class=\"p\">),</span> <span class=\"p\">(</span><span class=\"s1\">'c'</span><span class=\"p\">,</span> <span class=\"n\">required</span><span class=\"p\">)])</span>  <span class=\"c1\"># \"a\", \"b\" and \"c\" fields will be fetched from the indexed record</span>\n<span class=\"p\">})</span>\n\n<span class=\"n\">record</span> <span class=\"o\">=</span> <span class=\"p\">{</span><span class=\"s1\">'a'</span><span class=\"p\">:</span> <span class=\"s1\">'A'</span><span class=\"p\">,</span> <span class=\"s1\">'b'</span><span class=\"p\">:</span> <span class=\"s1\">'B'</span><span class=\"p\">}</span>  <span class=\"c1\"># won't be indexed, raises FieldRequiredError</span>\n</pre>\n<p>The default value for missing field can be defined as a primitive value or callable (functional index):</p>\n<pre><span class=\"kn\">from</span> <span class=\"nn\">udb_py</span> <span class=\"kn\">import</span> <span class=\"n\">Udb</span><span class=\"p\">,</span> <span class=\"n\">UdbBtreeIndex</span>\n\n<span class=\"n\">db</span> <span class=\"o\">=</span> <span class=\"n\">Udb</span><span class=\"p\">(</span><span class=\"n\">indexes</span><span class=\"o\">=</span><span class=\"p\">{</span>\n    <span class=\"s1\">'abc'</span><span class=\"p\">:</span> <span class=\"n\">UdbBtreeIndex</span><span class=\"p\">({</span><span class=\"s1\">'a'</span><span class=\"p\">:</span> <span class=\"s1\">'a'</span><span class=\"p\">,</span> <span class=\"s1\">'b'</span><span class=\"p\">:</span> <span class=\"s1\">'b'</span><span class=\"p\">,</span> <span class=\"s1\">'c'</span><span class=\"p\">:</span> <span class=\"s1\">'c'</span><span class=\"p\">})</span>\n<span class=\"p\">})</span>\n\n<span class=\"n\">record</span> <span class=\"o\">=</span> <span class=\"p\">{</span><span class=\"s1\">'a'</span><span class=\"p\">:</span> <span class=\"s1\">'A'</span><span class=\"p\">,</span> <span class=\"s1\">'c'</span><span class=\"p\">:</span> <span class=\"s1\">'C'</span><span class=\"p\">}</span>  <span class=\"c1\"># index key=AbC</span>\n</pre>\n<pre><span class=\"kn\">from</span> <span class=\"nn\">udb_py</span> <span class=\"kn\">import</span> <span class=\"n\">Udb</span><span class=\"p\">,</span> <span class=\"n\">UdbBtreeIndex</span>\n\n<span class=\"n\">db</span> <span class=\"o\">=</span> <span class=\"n\">Udb</span><span class=\"p\">(</span><span class=\"n\">indexes</span><span class=\"o\">=</span><span class=\"p\">{</span>\n    <span class=\"s1\">'abc'</span><span class=\"p\">:</span> <span class=\"n\">UdbBtreeIndex</span><span class=\"p\">({</span><span class=\"s1\">'a'</span><span class=\"p\">:</span> <span class=\"s1\">'a'</span><span class=\"p\">,</span> <span class=\"s1\">'b'</span><span class=\"p\">:</span> <span class=\"k\">lambda</span> <span class=\"n\">key</span><span class=\"p\">,</span> <span class=\"n\">values</span><span class=\"p\">:</span> <span class=\"s1\">'b'</span><span class=\"p\">,</span> <span class=\"s1\">'c'</span><span class=\"p\">:</span> <span class=\"s1\">'c'</span><span class=\"p\">})</span>\n<span class=\"p\">})</span>\n\n<span class=\"n\">record</span> <span class=\"o\">=</span> <span class=\"p\">{</span><span class=\"s1\">'a'</span><span class=\"p\">:</span> <span class=\"s1\">'A'</span><span class=\"p\">,</span> <span class=\"s1\">'c'</span><span class=\"p\">:</span> <span class=\"s1\">'C'</span><span class=\"p\">}</span>  <span class=\"c1\"># index key=AbC</span>\n</pre>\n</div>\n<div id=\"id10\">\n<h3>Float precision</h3>\n<p>To be able to index float values enable the float mode with necessary precision (number of decimals):</p>\n<pre><span class=\"kn\">from</span> <span class=\"nn\">udb_py</span> <span class=\"kn\">import</span> <span class=\"n\">Udb</span><span class=\"p\">,</span> <span class=\"n\">UdbBtreeIndex</span>\n\n<span class=\"n\">db</span> <span class=\"o\">=</span> <span class=\"n\">Udb</span><span class=\"p\">(</span><span class=\"n\">indexes</span><span class=\"o\">=</span><span class=\"p\">{</span>\n    <span class=\"s1\">'abc'</span><span class=\"p\">:</span> <span class=\"n\">UdbBtreeIndex</span><span class=\"p\">([</span><span class=\"s1\">'a'</span><span class=\"p\">])</span><span class=\"o\">.</span><span class=\"n\">set_float_precision</span><span class=\"p\">(</span><span class=\"mi\">10</span><span class=\"p\">)</span>\n<span class=\"p\">})</span>\n\n<span class=\"n\">db</span><span class=\"o\">.</span><span class=\"n\">insert</span><span class=\"p\">({</span><span class=\"s1\">'a'</span><span class=\"p\">:</span> <span class=\"mf\">3.1415926525</span><span class=\"p\">})</span>\n</pre>\n</div>\n</div>\n<div id=\"id11\">\n<h2>Querying</h2>\n<p>Udb supports limited MongoDB-like queries which can be used in the delete, select or update operations.\nThe query generally is a python\u2019s dict with the key as a field and value as a primitive value or an equality condition over the field.\nThe query dict is <strong>mutable</strong>, therefore it needs to be initialized every time anew.</p>\n<p>Supported query operations:</p>\n<ul>\n<li><p><strong>$eq</strong> - equal to a value</p>\n<pre><span class=\"n\">udb</span><span class=\"o\">.</span><span class=\"n\">select</span><span class=\"p\">({</span><span class=\"s1\">'a'</span><span class=\"p\">:</span> <span class=\"p\">{</span><span class=\"s1\">'$eq'</span><span class=\"p\">:</span> <span class=\"mi\">5</span><span class=\"p\">}})</span>\n</pre>\n</li>\n<li><p><strong>$gt</strong> - greater then value</p>\n<pre><span class=\"n\">udb</span><span class=\"o\">.</span><span class=\"n\">select</span><span class=\"p\">({</span><span class=\"s1\">'a'</span><span class=\"p\">:</span> <span class=\"p\">{</span><span class=\"s1\">'$gt'</span><span class=\"p\">:</span> <span class=\"mi\">5</span><span class=\"p\">}})</span>\n</pre>\n</li>\n<li><p><strong>$gte</strong> - greater or equal to a value</p>\n<pre><span class=\"n\">udb</span><span class=\"o\">.</span><span class=\"n\">select</span><span class=\"p\">({</span><span class=\"s1\">'a'</span><span class=\"p\">:</span> <span class=\"p\">{</span><span class=\"s1\">'$gte'</span><span class=\"p\">:</span> <span class=\"mi\">5</span><span class=\"p\">}})</span>\n</pre>\n</li>\n<li><p><strong>$in</strong> - equal to an any value in the list of a values</p>\n<pre><span class=\"n\">udb</span><span class=\"o\">.</span><span class=\"n\">select</span><span class=\"p\">({</span><span class=\"s1\">'a'</span><span class=\"p\">:</span> <span class=\"p\">{</span><span class=\"s1\">'$in'</span><span class=\"p\">:</span> <span class=\"mi\">5</span><span class=\"p\">}})</span>\n</pre>\n</li>\n<li><p><strong>$intersection</strong> - intersection with rectangle</p>\n<pre><span class=\"n\">udb</span><span class=\"o\">.</span><span class=\"n\">select</span><span class=\"p\">({</span><span class=\"s1\">'a'</span><span class=\"p\">:</span> <span class=\"p\">{</span><span class=\"s1\">'$intersection'</span><span class=\"p\">:</span> <span class=\"p\">{</span><span class=\"s1\">'minX'</span><span class=\"p\">:</span> <span class=\"mi\">5</span><span class=\"p\">,</span> <span class=\"s1\">'minY'</span><span class=\"p\">:</span> <span class=\"mi\">5</span><span class=\"p\">,</span> <span class=\"s1\">'maxX'</span><span class=\"p\">:</span> <span class=\"mi\">1</span><span class=\"p\">,</span> <span class=\"s1\">'maxY'</span><span class=\"p\">:</span> <span class=\"mi\">5</span><span class=\"p\">}}})</span>\n</pre>\n</li>\n<li><p><strong>$lt</strong> - less then value</p>\n<pre><span class=\"n\">udb</span><span class=\"o\">.</span><span class=\"n\">select</span><span class=\"p\">({</span><span class=\"s1\">'a'</span><span class=\"p\">:</span> <span class=\"p\">{</span><span class=\"s1\">'$lt'</span><span class=\"p\">:</span> <span class=\"mi\">5</span><span class=\"p\">}})</span>\n</pre>\n</li>\n<li><p><strong>$lte</strong> - less or equal to a value</p>\n<pre><span class=\"n\">udb</span><span class=\"o\">.</span><span class=\"n\">select</span><span class=\"p\">({</span><span class=\"s1\">'a'</span><span class=\"p\">:</span> <span class=\"p\">{</span><span class=\"s1\">'$lte'</span><span class=\"p\">:</span> <span class=\"mi\">5</span><span class=\"p\">}})</span>\n</pre>\n</li>\n<li><p><strong>$ne</strong> - not equal to a value</p>\n<pre><span class=\"n\">udb</span><span class=\"o\">.</span><span class=\"n\">select</span><span class=\"p\">({</span><span class=\"s1\">'a'</span><span class=\"p\">:</span> <span class=\"p\">{</span><span class=\"s1\">'$ne'</span><span class=\"p\">:</span> <span class=\"mi\">5</span><span class=\"p\">}})</span>\n</pre>\n<ul>\n<li>performs \u201cseq\u201d scan.</li>\n</ul>\n</li>\n<li><p><strong>$near</strong> - near to point with optional min and max distances</p>\n<pre><span class=\"n\">udb</span><span class=\"o\">.</span><span class=\"n\">select</span><span class=\"p\">({</span><span class=\"s1\">'a'</span><span class=\"p\">:</span> <span class=\"p\">{</span><span class=\"s1\">'$near'</span><span class=\"p\">:</span> <span class=\"p\">{</span><span class=\"s1\">'x'</span><span class=\"p\">:</span> <span class=\"mi\">5</span><span class=\"p\">,</span> <span class=\"s1\">'y'</span><span class=\"p\">:</span> <span class=\"mi\">5</span><span class=\"p\">,</span> <span class=\"s1\">'minDistance'</span><span class=\"p\">:</span> <span class=\"mi\">1</span><span class=\"p\">,</span> <span class=\"s1\">'maxDistance'</span><span class=\"p\">:</span> <span class=\"mi\">5</span><span class=\"p\">}}})</span>\n</pre>\n<ul>\n<li>allocates sort buffer is case of \u201cseq\u201d scan</li>\n<li>selects all records in case of unset <em>maxDistance</em> and set <em>minDistance</em>.</li>\n</ul>\n</li>\n<li><p><strong>$nin</strong> - not equal to an any value in the list of a values</p>\n<pre><span class=\"n\">udb</span><span class=\"o\">.</span><span class=\"n\">select</span><span class=\"p\">({</span><span class=\"s1\">'a'</span><span class=\"p\">:</span> <span class=\"p\">{</span><span class=\"s1\">'$nin'</span><span class=\"p\">:</span> <span class=\"p\">[</span><span class=\"mi\">1</span><span class=\"p\">,</span> <span class=\"mi\">2</span><span class=\"p\">,</span> <span class=\"mi\">3</span><span class=\"p\">]}})</span>\n</pre>\n<ul>\n<li>performs \u201cseq\u201d scan.</li>\n</ul>\n</li>\n<li><p><strong>primitive value</strong> - equal to a value</p>\n<pre><span class=\"n\">udb</span><span class=\"o\">.</span><span class=\"n\">select</span><span class=\"p\">({</span><span class=\"s1\">'a'</span><span class=\"p\">:</span> <span class=\"mi\">5</span><span class=\"p\">})</span>\n</pre>\n</li>\n</ul>\n<p>Example:</p>\n<pre><span class=\"n\">records</span> <span class=\"o\">=</span> <span class=\"nb\">list</span><span class=\"p\">(</span><span class=\"n\">udb</span><span class=\"o\">.</span><span class=\"n\">select</span><span class=\"p\">({</span><span class=\"s1\">'a'</span><span class=\"p\">:</span> <span class=\"mi\">1</span><span class=\"p\">}))</span>\n<span class=\"n\">records</span> <span class=\"o\">=</span> <span class=\"nb\">list</span><span class=\"p\">(</span><span class=\"n\">udb</span><span class=\"o\">.</span><span class=\"n\">select</span><span class=\"p\">({</span><span class=\"s1\">'a'</span><span class=\"p\">:</span> <span class=\"p\">{</span><span class=\"s1\">'$gte'</span><span class=\"p\">:</span> <span class=\"mi\">1</span><span class=\"p\">,</span> <span class=\"s1\">'$lte'</span><span class=\"p\">:</span> <span class=\"mi\">3</span><span class=\"p\">}}))</span>\n<span class=\"n\">records</span> <span class=\"o\">=</span> <span class=\"nb\">list</span><span class=\"p\">(</span><span class=\"n\">udb</span><span class=\"o\">.</span><span class=\"n\">select</span><span class=\"p\">({</span><span class=\"s1\">'a'</span><span class=\"p\">:</span> <span class=\"p\">{</span><span class=\"s1\">'$in'</span><span class=\"p\">:</span> <span class=\"p\">[</span><span class=\"mi\">1</span><span class=\"p\">,</span> <span class=\"mi\">2</span><span class=\"p\">,</span> <span class=\"mi\">3</span><span class=\"p\">],</span> <span class=\"s1\">'$lte'</span><span class=\"p\">:</span> <span class=\"mi\">2</span><span class=\"p\">}}))</span>\n</pre>\n<div id=\"id12\">\n<h3>Query validation</h3>\n<p>By default Udb does not check the query dict validity.\nTo check its validity use <strong>validate_query</strong> method.</p>\n<pre><span class=\"n\">udb</span><span class=\"o\">.</span><span class=\"n\">validate_query</span><span class=\"p\">({</span><span class=\"s1\">'a'</span><span class=\"p\">:</span> <span class=\"p\">{</span><span class=\"s1\">'$gte'</span><span class=\"p\">:</span> <span class=\"p\">[</span><span class=\"mi\">1</span><span class=\"p\">,</span> <span class=\"mi\">2</span><span class=\"p\">,</span> <span class=\"mi\">3</span><span class=\"p\">]}})</span>  <span class=\"c1\"># raises InvalidScanOperationValueError('a.$gte')</span>\n</pre>\n</div>\n<div id=\"id13\">\n<h3>Comparison order</h3>\n<p>Due to the fact that the Udb database is not strictly typed for stored values, there is the following order of ascending comparisons for values \u200b\u200bof different types:</p>\n<ul>\n<li>None</li>\n<li>boolean - <em>false</em> less then <em>true</em></li>\n<li>int, float</li>\n<li>string</li>\n</ul>\n<p>So, for example, the record containing <em>int</em> value always greater than the record containing <em>boolean</em> value for the same field.\nAlso, it means, that the records having indexed field will be fetched in the provided order.</p>\n</div>\n<div id=\"id14\">\n<h3>Getting plan</h3>\n<p>To get the query plan use <strong>select</strong> method with <strong>get_plan=True</strong>:</p>\n<pre><span class=\"kn\">from</span> <span class=\"nn\">udb_py</span> <span class=\"kn\">import</span> <span class=\"n\">Udb</span><span class=\"p\">,</span> <span class=\"n\">UdbBtreeIndex</span>\n\n<span class=\"n\">db</span> <span class=\"o\">=</span> <span class=\"n\">Udb</span><span class=\"p\">(</span><span class=\"n\">indexes</span><span class=\"o\">=</span><span class=\"p\">{</span>\n    <span class=\"s1\">'abc'</span><span class=\"p\">:</span> <span class=\"n\">UdbBtreeIndex</span><span class=\"p\">({</span><span class=\"s1\">'a'</span><span class=\"p\">:</span> <span class=\"s1\">'a'</span><span class=\"p\">,</span> <span class=\"s1\">'b'</span><span class=\"p\">:</span> <span class=\"k\">lambda</span> <span class=\"n\">key</span><span class=\"p\">,</span> <span class=\"n\">values</span><span class=\"p\">:</span> <span class=\"s1\">'b'</span><span class=\"p\">,</span> <span class=\"s1\">'c'</span><span class=\"p\">:</span> <span class=\"s1\">'c'</span><span class=\"p\">})</span>\n<span class=\"p\">})</span>\n\n<span class=\"n\">db</span><span class=\"o\">.</span><span class=\"n\">select</span><span class=\"p\">({</span><span class=\"s1\">'a'</span><span class=\"p\">:</span> <span class=\"mi\">3</span><span class=\"p\">},</span> <span class=\"n\">sort</span><span class=\"o\">=</span><span class=\"s1\">'-a'</span><span class=\"p\">,</span> <span class=\"n\">get_plan</span><span class=\"o\">=</span><span class=\"kc\">True</span><span class=\"p\">)</span>  <span class=\"c1\"># [(&lt;udb.index.udb_btree_index.UdbBtreeIndex object at 0x104994080&gt;, 'const', 1, 2), (None, 'sort', 0, 0, 'a', False)]</span>\n</pre>\n</div>\n<div id=\"id15\">\n<h3>Scan operations</h3>\n<p>BTree index:</p>\n<ul>\n<li><strong>const</strong> - an index covers only one record by the index key</li>\n<li><strong>in</strong> - an index covers multiple records by the list of the index keys, each of which covers exactly one record</li>\n<li><strong>range</strong> - an index covers multiple records by the index keys set by the minimum and maximum values</li>\n<li><strong>prefix</strong> - an index covers range of records by the partial index key</li>\n<li><strong>prefix_in</strong> - an index covers multiple records by the list of the partial index keys, each of which covers range of records</li>\n</ul>\n<p>RTree index:</p>\n<ul>\n<li><strong>intersection</strong> - an index covers records intersected by the rectangle</li>\n<li><strong>near</strong> - an index covers records near to the point</li>\n</ul>\n<p>No index:</p>\n<ul>\n<li><strong>seq</strong> - scanning that is not covered by any index, all records will be scanned (worst case)</li>\n</ul>\n</div>\n</div>\n<div id=\"id16\">\n<h2>Storages</h2>\n<p>The storage allows keeping data persistent.</p>\n<p><strong>UdbJsonFileStorage</strong> stores data in the JSON file.</p>\n<pre><span class=\"kn\">from</span> <span class=\"nn\">udb_py</span> <span class=\"kn\">import</span> <span class=\"n\">UdbJsonFileStorage</span>\n\n<span class=\"n\">db</span> <span class=\"o\">=</span> <span class=\"n\">Udb</span><span class=\"p\">(</span><span class=\"n\">storage</span><span class=\"o\">=</span><span class=\"n\">UdbJsonFileStorage</span><span class=\"p\">(</span><span class=\"s1\">'db'</span><span class=\"p\">))</span>\n\n<span class=\"n\">db</span><span class=\"o\">.</span><span class=\"n\">load_db</span><span class=\"p\">()</span>\n\n<span class=\"n\">db</span><span class=\"o\">.</span><span class=\"n\">insert</span><span class=\"p\">({</span><span class=\"s1\">'a'</span><span class=\"p\">:</span> <span class=\"s1\">'a'</span><span class=\"p\">})</span>\n\n<span class=\"n\">db</span><span class=\"o\">.</span><span class=\"n\">save_db</span><span class=\"p\">()</span>\n</pre>\n<p><strong>UdbWalStorage</strong> stores data of delete, insert and update operations in the WAL (Write-Ahead-Logging) file chronologically.</p>\n<pre><span class=\"kn\">from</span> <span class=\"nn\">udb_py</span> <span class=\"kn\">import</span> <span class=\"n\">UdbWalStorage</span>\n\n<span class=\"n\">db</span> <span class=\"o\">=</span> <span class=\"n\">Udb</span><span class=\"p\">(</span><span class=\"n\">storage</span><span class=\"o\">=</span><span class=\"n\">UdbWalStorage</span><span class=\"p\">(</span><span class=\"s1\">'db'</span><span class=\"p\">))</span>\n\n<span class=\"n\">db</span><span class=\"o\">.</span><span class=\"n\">load_db</span><span class=\"p\">()</span>\n\n<span class=\"n\">db</span><span class=\"o\">.</span><span class=\"n\">insert</span><span class=\"p\">({</span><span class=\"s1\">'a'</span><span class=\"p\">:</span> <span class=\"s1\">'a'</span><span class=\"p\">})</span>\n\n<span class=\"n\">db</span><span class=\"o\">.</span><span class=\"n\">save_db</span><span class=\"p\">()</span>  <span class=\"c1\"># does nothing; delete, insert and update data will be stored on the fly</span>\n</pre>\n</div>\n<div id=\"id17\">\n<h2>Select operation</h2>\n<p>Selected records are <strong>mutable</strong>, so avoid to update them directly.\nOtherwise use copy on select mode:</p>\n<pre><span class=\"n\">udb</span><span class=\"o\">.</span><span class=\"n\">set_copy_on_select</span><span class=\"p\">()</span>\n</pre>\n<p>To limit the result subset to particular number of records use <strong>limit</strong> parameter:</p>\n<pre><span class=\"n\">records</span> <span class=\"o\">=</span> <span class=\"nb\">list</span><span class=\"p\">(</span><span class=\"n\">udb</span><span class=\"o\">.</span><span class=\"n\">select</span><span class=\"p\">({</span><span class=\"s1\">'a'</span><span class=\"p\">:</span> <span class=\"mi\">1</span><span class=\"p\">},</span> <span class=\"n\">limit</span><span class=\"o\">=</span><span class=\"mi\">5</span><span class=\"p\">)</span>\n</pre>\n<p>To fetch the result subset from the particular offset use <strong>offset</strong> parameter:</p>\n<pre><span class=\"n\">records</span> <span class=\"o\">=</span> <span class=\"nb\">list</span><span class=\"p\">(</span><span class=\"n\">udb</span><span class=\"o\">.</span><span class=\"n\">select</span><span class=\"p\">({</span><span class=\"s1\">'a'</span><span class=\"p\">:</span> <span class=\"mi\">1</span><span class=\"p\">},</span> <span class=\"n\">offset</span><span class=\"o\">=</span><span class=\"mi\">5</span><span class=\"p\">)</span>\n</pre>\n</div>\n<div id=\"id18\">\n<h2>Delete operation</h2>\n<pre><span class=\"n\">udb</span><span class=\"o\">.</span><span class=\"n\">delete</span><span class=\"p\">(</span><span class=\"n\">q</span><span class=\"o\">=</span><span class=\"p\">{</span><span class=\"s1\">'a'</span><span class=\"p\">:</span> <span class=\"mi\">1</span><span class=\"p\">},</span> <span class=\"n\">offset</span><span class=\"o\">=</span><span class=\"mi\">5</span><span class=\"p\">)</span>\n</pre>\n</div>\n<div id=\"id19\">\n<h2>Insert operation</h2>\n<pre><span class=\"n\">udb</span><span class=\"o\">.</span><span class=\"n\">insert</span><span class=\"p\">({</span><span class=\"s1\">'a'</span><span class=\"p\">:</span> <span class=\"mi\">1</span><span class=\"p\">})</span>\n</pre>\n</div>\n<div id=\"id20\">\n<h2>Update operation</h2>\n<pre><span class=\"n\">udb</span><span class=\"o\">.</span><span class=\"n\">update</span><span class=\"p\">({</span><span class=\"s1\">'a'</span><span class=\"p\">:</span> <span class=\"mi\">2</span><span class=\"p\">},</span> <span class=\"n\">q</span><span class=\"o\">=</span><span class=\"p\">{</span><span class=\"s1\">'a'</span><span class=\"p\">:</span> <span class=\"mi\">1</span><span class=\"p\">},</span> <span class=\"n\">offset</span><span class=\"o\">=</span><span class=\"mi\">5</span><span class=\"p\">)</span>\n</pre>\n</div>\n<div id=\"running-tests-with-pytest\">\n<h2>Running tests with pytest</h2>\n<pre>pytest . --ignore<span class=\"o\">=</span>virtualenv -v\n</pre>\n</div>\n<div id=\"id21\">\n<h2>Limitations</h2>\n<ul>\n<li>Nested paths for indexing and querying are not supported, only the root level</li>\n<li>Transactions are not supported</li>\n</ul>\n</div>\n<div id=\"id22\">\n<h2>Benchmarks</h2>\n<ul>\n<li>Intel Core i7, 3.58 GHz, 4 cores, disabled HT</li>\n<li>16GB 1600 MHz RAM</li>\n<li>PyPy3</li>\n</ul>\n<pre>INSERT (BTREE, 1ST INDEX COVERS 1 FIELD)\n\nTotal time: 2.9712460041046143 sec., per sample: 2.971246004104614e-06 sec., samples per second: 336559.1400437912, total samples: 1000000\n\nSELECT (BTREE, 1ST INDEX COVERS 1 FIELD)\n\nTotal time: 1.7301840782165527 sec., per sample: 1.7301840782165527e-06 sec., samples per second: 577973.1836573046, total samples: 1000000\n\nINSERT (BTREE, 1ST INDEX COVERS 1 FIELD, 2ND INDEX COVERS 1 FIELD, 3RD INDEX COVERS 2 FIELDS)\n\nTotal time: 6.8810200691223145 sec., per sample: 6.881020069122315e-06 sec., samples per second: 145327.29013353275, total samples: 1000000\n\nSELECT (BTREE, 1ST INDEX COVERS 1 FIELD, 2ND INDEX COVERS 1 FIELD, 3RD INDEX COVERS 2 FIELDS)\n\nTotal time: 1.8345210552215576 sec., per sample: 1.8345210552215576e-06 sec., samples per second: 545101.4024361953, total samples: 1000000\n\nINSERT (HASH, 1ST INDEX COVERS 1 FIELD)\n\nTotal time: 1.781458854675293 sec., per sample: 1.781458854675293e-06 sec., samples per second: 561337.6909467103, total samples: 1000000\n\nSELECT (HASH, 1ST INDEX COVERS 1 FIELD)\n\nTotal time: 0.8209011554718018 sec., per sample: 8.209011554718018e-07 sec., samples per second: 1218173.458929125, total samples: 1000000\n\nINSERT (HASH, 1ST INDEX COVERS 1 FIELD, 2ND INDEX COVERS 1 FIELD, 3RD INDEX COVERS 2 FIELDS)\n\nTotal time: 4.138401985168457 sec., per sample: 4.138401985168457e-06 sec., samples per second: 241639.16496847855, total samples: 1000000\n\nSELECT (HASH, 1ST INDEX COVERS 1 FIELD, 2ND INDEX COVERS 1 FIELD, 3RD INDEX COVERS 2 FIELDS)\n\nTotal time: 1.001291036605835 sec., per sample: 1.001291036605835e-06 sec., samples per second: 998710.628020589, total samples: 1000000\n\nINSERT (RTREE, 1ST INDEX COVERS 1 FIELD)\n\nTotal time: 9.943094968795776 sec., per sample: 9.943094968795777e-05 sec., samples per second: 10057.230702696503, total samples: 100000\n\nSELECT (RTREE, 1ST INDEX COVERS 1 FIELD, LIMIT = 5)\n\nTotal time: 11.716284990310669 sec., per sample: 0.00011716284990310669 sec., samples per second: 8535.128676256994, total samples: 100000\n</pre>\n</div>\n\n          </div>"}, "last_serial": 6150475, "releases": {"0.0.1": [{"comment_text": "", "digests": {"md5": "8358f8f2bb88210b944d605baa1ed529", "sha256": "9d53bb7eab2f343f0630968239ec8654d3e733009825adebef798126ba4df679"}, "downloads": -1, "filename": "udb_py-0.0.1-py3-none-any.whl", "has_sig": false, "md5_digest": "8358f8f2bb88210b944d605baa1ed529", "packagetype": "bdist_wheel", "python_version": "py3", "requires_python": null, "size": 26528, "upload_time": "2019-11-17T13:35:49", "upload_time_iso_8601": "2019-11-17T13:35:49.549992Z", "url": "https://files.pythonhosted.org/packages/c9/62/c343e114daebab74b7f77897d9acdc4e95505837a2a64748f9320c220fc7/udb_py-0.0.1-py3-none-any.whl", "yanked": false}, {"comment_text": "", "digests": {"md5": "ebb80dd5098b4f5214a08aa8f2785b4a", "sha256": "033196306441f642baa360e0b0f84c901b3bd2465a657d835d6c8173dd820d85"}, "downloads": -1, "filename": "udb_py-0.0.1.tar.gz", "has_sig": false, "md5_digest": "ebb80dd5098b4f5214a08aa8f2785b4a", "packagetype": "sdist", "python_version": "source", "requires_python": null, "size": 20140, "upload_time": "2019-11-17T13:35:52", "upload_time_iso_8601": "2019-11-17T13:35:52.398786Z", "url": "https://files.pythonhosted.org/packages/87/78/f80435003f1a25a2d5ec7de85164d563bda0ac9f5a15c3c7a0a5c66446fe/udb_py-0.0.1.tar.gz", "yanked": false}]}, "urls": [{"comment_text": "", "digests": {"md5": "8358f8f2bb88210b944d605baa1ed529", "sha256": "9d53bb7eab2f343f0630968239ec8654d3e733009825adebef798126ba4df679"}, "downloads": -1, "filename": "udb_py-0.0.1-py3-none-any.whl", "has_sig": false, "md5_digest": "8358f8f2bb88210b944d605baa1ed529", "packagetype": "bdist_wheel", "python_version": "py3", "requires_python": null, "size": 26528, "upload_time": "2019-11-17T13:35:49", "upload_time_iso_8601": "2019-11-17T13:35:49.549992Z", "url": "https://files.pythonhosted.org/packages/c9/62/c343e114daebab74b7f77897d9acdc4e95505837a2a64748f9320c220fc7/udb_py-0.0.1-py3-none-any.whl", "yanked": false}, {"comment_text": "", "digests": {"md5": "ebb80dd5098b4f5214a08aa8f2785b4a", "sha256": "033196306441f642baa360e0b0f84c901b3bd2465a657d835d6c8173dd820d85"}, "downloads": -1, "filename": "udb_py-0.0.1.tar.gz", "has_sig": false, "md5_digest": "ebb80dd5098b4f5214a08aa8f2785b4a", "packagetype": "sdist", "python_version": "source", "requires_python": null, "size": 20140, "upload_time": "2019-11-17T13:35:52", "upload_time_iso_8601": "2019-11-17T13:35:52.398786Z", "url": "https://files.pythonhosted.org/packages/87/78/f80435003f1a25a2d5ec7de85164d563bda0ac9f5a15c3c7a0a5c66446fe/udb_py-0.0.1.tar.gz", "yanked": false}], "timestamp": "Fri May  8 03:41:55 2020"}